<?xml version="1.0" encoding="UTF-8" standalone="no"?>
<svg width="262px" height="273px" viewBox="0 0 262 273" version="1.1" xmlns="http://www.w3.org/2000/svg" xmlns:xlink="http://www.w3.org/1999/xlink">
    <!-- Generator: Sketch 3.8.3 (29802) - http://www.bohemiancoding.com/sketch -->
    <title>pizza-icon</title>
    <desc>Created with Sketch.</desc>
    <defs></defs>
    <g id="Page-1" stroke="none" stroke-width="1" fill="none" fill-rule="evenodd">
        <g id="pizza-icon">
            <g transform="translate(-3.000000, 1.000000)">
                <g id="store" transform="translate(25.369906, 0.000000)">
                    <g id="Capa_1">
                        <g id="Group">
                            <path d="M210.021854,82.2059937 L205.903779,82.2059937 C189.983298,82.2059937 177.07725,69.3243145 177.07725,53.4338959 C177.07725,69.3243145 164.171201,82.2059937 148.250721,82.2059937 C132.33024,82.2059937 119.424192,69.3243145 119.424192,53.4338959 C119.424192,69.3243145 106.518143,82.2059937 90.5976626,82.2059937 C74.6771824,82.2059937 61.7711336,69.3243145 61.7711336,53.4338959 C61.7711336,69.3243145 48.8650847,82.2059937 32.9446046,82.2059937 L28.826529,82.2059937 C12.9060488,82.2059937 0,69.3243145 0,53.4338959 L0,238.397382 L238.848383,238.397382 L238.848383,53.4338959 C238.848383,69.3243145 225.942334,82.2059937 210.021854,82.2059937 L210.021854,82.2059937 Z" id="Shape" fill="#F5EFCA"></path>
                            <g transform="translate(12.354227, 98.647192)">
                                <rect id="Rectangle-path" fill="#7F6E5D" x="4.11807557" y="4.11029969" width="127.660343" height="106.867792"></rect>
                                <path d="M135.896494,115.088391 L0,115.088391 L0,0 L135.896494,0 L135.896494,115.088391 L135.896494,115.088391 Z M8.23615114,106.867792 L127.660343,106.867792 L127.660343,8.22059937 L8.23615114,8.22059937 L8.23615114,106.867792 L8.23615114,106.867792 Z" id="Shape" fill="#CBB292"></path>
                            </g>
                            <path d="M32.9446046,226.066483 L28.826529,226.066483 C26.5492332,226.066483 24.7084534,224.229179 24.7084534,221.956183 C24.7084534,219.683187 26.5492332,217.845883 28.826529,217.845883 L32.9446046,217.845883 C35.2219004,217.845883 37.0626801,219.683187 37.0626801,221.956183 C37.0626801,224.229179 35.2219004,226.066483 32.9446046,226.066483 L32.9446046,226.066483 Z" id="Shape" fill="#CBB292"></path>
                            <path d="M16.4723023,226.066483 L12.3542267,226.066483 C10.0769309,226.066483 8.23615114,224.229179 8.23615114,221.956183 C8.23615114,219.683187 10.0769309,217.845883 12.3542267,217.845883 L16.4723023,217.845883 C18.7495981,217.845883 20.5903779,219.683187 20.5903779,221.956183 C20.5903779,224.229179 18.7495981,226.066483 16.4723023,226.066483 L16.4723023,226.066483 Z" id="Shape" fill="#CBB292"></path>
                            <path d="M45.2988313,238.397382 L41.1807557,238.397382 C38.9034599,238.397382 37.0626801,236.560078 37.0626801,234.287082 C37.0626801,232.014086 38.9034599,230.176782 41.1807557,230.176782 L45.2988313,230.176782 C47.5761271,230.176782 49.4169068,232.014086 49.4169068,234.287082 C49.4169068,236.560078 47.5761271,238.397382 45.2988313,238.397382 L45.2988313,238.397382 Z" id="Shape" fill="#CBB292"></path>
                            <path d="M12.3542267,238.397382 L8.23615114,238.397382 C5.95885535,238.397382 4.11807557,236.560078 4.11807557,234.287082 C4.11807557,232.014086 5.95885535,230.176782 8.23615114,230.176782 L12.3542267,230.176782 C14.6315225,230.176782 16.4723023,232.014086 16.4723023,234.287082 C16.4723023,236.560078 14.6315225,238.397382 12.3542267,238.397382 L12.3542267,238.397382 Z" id="Shape" fill="#CBB292"></path>
                            <path d="M28.826529,238.397382 L24.7084534,238.397382 C22.4311576,238.397382 20.5903779,236.560078 20.5903779,234.287082 C20.5903779,232.014086 22.4311576,230.176782 24.7084534,230.176782 L28.826529,230.176782 C31.1038248,230.176782 32.9446046,232.014086 32.9446046,234.287082 C32.9446046,236.560078 31.1038248,238.397382 28.826529,238.397382 L28.826529,238.397382 Z" id="Shape" fill="#CBB292"></path>
                            <path d="M65.8892091,226.066483 L61.7711336,226.066483 C59.4938378,226.066483 57.653058,224.229179 57.653058,221.956183 C57.653058,219.683187 59.4938378,217.845883 61.7711336,217.845883 L65.8892091,217.845883 C68.1665049,217.845883 70.0072847,219.683187 70.0072847,221.956183 C70.0072847,224.229179 68.1665049,226.066483 65.8892091,226.066483 L65.8892091,226.066483 Z" id="Shape" fill="#CBB292"></path>
                            <path d="M49.4169068,226.066483 L45.2988313,226.066483 C43.0215355,226.066483 41.1807557,224.229179 41.1807557,221.956183 C41.1807557,219.683187 43.0215355,217.845883 45.2988313,217.845883 L49.4169068,217.845883 C51.6942026,217.845883 53.5349824,219.683187 53.5349824,221.956183 C53.5349824,224.229179 51.6942026,226.066483 49.4169068,226.066483 L49.4169068,226.066483 Z" id="Shape" fill="#CBB292"></path>
                            <path d="M61.7711336,238.397382 L57.653058,238.397382 C55.3757622,238.397382 53.5349824,236.560078 53.5349824,234.287082 C53.5349824,232.014086 55.3757622,230.176782 57.653058,230.176782 L61.7711336,230.176782 C64.0484294,230.176782 65.8892091,232.014086 65.8892091,234.287082 C65.8892091,236.560078 64.0484294,238.397382 61.7711336,238.397382 L61.7711336,238.397382 Z" id="Shape" fill="#CBB292"></path>
                            <path d="M98.8338137,226.066483 L94.7157381,226.066483 C92.4384423,226.066483 90.5976626,224.229179 90.5976626,221.956183 C90.5976626,219.683187 92.4384423,217.845883 94.7157381,217.845883 L98.8338137,217.845883 C101.111109,217.845883 102.951889,219.683187 102.951889,221.956183 C102.951889,224.229179 101.111109,226.066483 98.8338137,226.066483 L98.8338137,226.066483 Z" id="Shape" fill="#CBB292"></path>
                            <path d="M82.3615114,226.066483 L78.2434358,226.066483 C75.9661401,226.066483 74.1253603,224.229179 74.1253603,221.956183 C74.1253603,219.683187 75.9661401,217.845883 78.2434358,217.845883 L82.3615114,217.845883 C84.6388072,217.845883 86.479587,219.683187 86.479587,221.956183 C86.479587,224.229179 84.6388072,226.066483 82.3615114,226.066483 L82.3615114,226.066483 Z" id="Shape" fill="#CBB292"></path>
                            <path d="M111.18804,238.397382 L107.069965,238.397382 C104.792669,238.397382 102.951889,236.560078 102.951889,234.287082 C102.951889,232.014086 104.792669,230.176782 107.069965,230.176782 L111.18804,230.176782 C113.465336,230.176782 115.306116,232.014086 115.306116,234.287082 C115.306116,236.560078 113.465336,238.397382 111.18804,238.397382 L111.18804,238.397382 Z" id="Shape" fill="#CBB292"></path>
                            <path d="M78.2434358,238.397382 L74.1253603,238.397382 C71.8480645,238.397382 70.0072847,236.560078 70.0072847,234.287082 C70.0072847,232.014086 71.8480645,230.176782 74.1253603,230.176782 L78.2434358,230.176782 C80.5207316,230.176782 82.3615114,232.014086 82.3615114,234.287082 C82.3615114,236.560078 80.5207316,238.397382 78.2434358,238.397382 L78.2434358,238.397382 Z" id="Shape" fill="#CBB292"></path>
                            <path d="M94.7157381,238.397382 L90.5976626,238.397382 C88.3203668,238.397382 86.479587,236.560078 86.479587,234.287082 C86.479587,232.014086 88.3203668,230.176782 90.5976626,230.176782 L94.7157381,230.176782 C96.9930339,230.176782 98.8338137,232.014086 98.8338137,234.287082 C98.8338137,236.560078 96.9930339,238.397382 94.7157381,238.397382 L94.7157381,238.397382 Z" id="Shape" fill="#CBB292"></path>
                            <path d="M131.778418,226.066483 L127.660343,226.066483 C125.383047,226.066483 123.542267,224.229179 123.542267,221.956183 C123.542267,219.683187 125.383047,217.845883 127.660343,217.845883 L131.778418,217.845883 C134.055714,217.845883 135.896494,219.683187 135.896494,221.956183 C135.896494,224.229179 134.055714,226.066483 131.778418,226.066483 L131.778418,226.066483 Z" id="Shape" fill="#CBB292"></path>
                            <path d="M115.306116,226.066483 L111.18804,226.066483 C108.910745,226.066483 107.069965,224.229179 107.069965,221.956183 C107.069965,219.683187 108.910745,217.845883 111.18804,217.845883 L115.306116,217.845883 C117.583412,217.845883 119.424192,219.683187 119.424192,221.956183 C119.424192,224.229179 117.583412,226.066483 115.306116,226.066483 L115.306116,226.066483 Z" id="Shape" fill="#CBB292"></path>
                            <path d="M127.660343,238.397382 L123.542267,238.397382 C121.264971,238.397382 119.424192,236.560078 119.424192,234.287082 C119.424192,232.014086 121.264971,230.176782 123.542267,230.176782 L127.660343,230.176782 C129.937638,230.176782 131.778418,232.014086 131.778418,234.287082 C131.778418,236.560078 129.937638,238.397382 127.660343,238.397382 L127.660343,238.397382 Z" id="Shape" fill="#CBB292"></path>
                            <path d="M148.250721,226.066483 L144.132645,226.066483 C141.855349,226.066483 140.014569,224.229179 140.014569,221.956183 C140.014569,219.683187 141.855349,217.845883 144.132645,217.845883 L148.250721,217.845883 C150.528016,217.845883 152.368796,219.683187 152.368796,221.956183 C152.368796,224.229179 150.528016,226.066483 148.250721,226.066483 L148.250721,226.066483 Z" id="Shape" fill="#CBB292"></path>
                            <path d="M144.132645,238.397382 L140.014569,238.397382 C137.737274,238.397382 135.896494,236.560078 135.896494,234.287082 C135.896494,232.014086 137.737274,230.176782 140.014569,230.176782 L144.132645,230.176782 C146.409941,230.176782 148.250721,232.014086 148.250721,234.287082 C148.250721,236.560078 146.409941,238.397382 144.132645,238.397382 L144.132645,238.397382 Z" id="Shape" fill="#CBB292"></path>
                            <path d="M70.0072847,0 L57.7518918,0 L57.653058,0 L57.653058,0.00411029969 C30.8938029,0.0493235962 7.57314097,17.9702302 0.428279859,43.7212578 C-0.448870237,46.8820782 0.774198207,45.2132965 1.55663257,45.2132965 L57.653058,45.2132965 L61.7711336,45.2132965 L119.424192,45.2132965 L119.424192,0 L70.0072847,0 L70.0072847,0 Z" id="Shape" fill="#71C285"></path>
                            <path d="M185.313401,45.2132965 L237.386466,45.2132965 C238.119484,45.2132965 239.037815,45.9202681 238.444812,43.8116843 L238.420103,43.7171475 C231.752939,19.2731952 210.33071,1.94417175 185.313401,0.176742886 L185.313401,0 L181.096491,0 L168.841098,0 L119.424192,0 L119.424192,45.2132965 L177.07725,45.2132965 L185.313401,45.2132965 L185.313401,45.2132965 Z" id="Shape" fill="#F3D55B"></path>
                            <path d="M119.424192,45.2132965 L61.7711336,45.2132965 L61.7711336,45.2132965 C66.5398651,19.0306875 89.3869483,0 116.04737,0 L119.424192,0 L119.424192,45.2132965 L119.424192,45.2132965 Z" id="Shape" fill="#F3D55B"></path>
                            <path d="M177.07725,45.2132965 L119.424192,45.2132965 L119.424192,0 L122.801014,0 C149.461435,0 172.308518,19.0306875 177.07725,45.2132965 L177.07725,45.2132965 L177.07725,45.2132965 Z" id="Shape" fill="#71C285"></path>
                            <path d="M32.9446046,82.2059937 L28.826529,82.2059937 C12.9060488,82.2059937 0,69.3243145 0,53.4338959 L0,45.8709445 C0,45.5092381 0.296501441,45.2132965 0.658892091,45.2132965 L61.7711336,45.2132965 L61.7711336,53.4338959 C61.7711336,69.3243145 48.8650847,82.2059937 32.9446046,82.2059937 L32.9446046,82.2059937 Z" id="Shape" fill="#68AD77"></path>
                            <path d="M90.5976626,82.2059937 L90.5976626,82.2059937 C74.6771824,82.2059937 61.7711336,69.3243145 61.7711336,53.4338959 L61.7711336,45.2132965 L119.424192,45.2132965 L119.424192,53.4338959 C119.424192,69.3243145 106.518143,82.2059937 90.5976626,82.2059937 L90.5976626,82.2059937 Z" id="Shape" fill="#DDC357"></path>
                            <path d="M148.250721,82.2059937 L148.250721,82.2059937 C132.33024,82.2059937 119.424192,69.3243145 119.424192,53.4338959 L119.424192,45.2132965 L177.07725,45.2132965 L177.07725,53.4338959 C177.07725,69.3243145 164.171201,82.2059937 148.250721,82.2059937 L148.250721,82.2059937 Z" id="Shape" fill="#68AD77"></path>
                            <path d="M210.021854,82.2059937 L205.903779,82.2059937 C189.983298,82.2059937 177.07725,69.3243145 177.07725,53.4338959 L177.07725,45.2132965 L238.189491,45.2132965 C238.551882,45.2132965 238.848383,45.5092381 238.848383,45.8709445 L238.848383,53.4338959 C238.848383,69.3243145 225.942334,82.2059937 210.021854,82.2059937 L210.021854,82.2059937 Z" id="Shape" fill="#DDC357"></path>
                            <g transform="translate(156.486872, 94.536893)" id="Shape">
                                <path d="M65.8892091,139.750189 L4.11807557,139.750189 L4.11807557,34.9375473 C4.11807557,17.912686 17.9465733,4.11029969 35.0036424,4.11029969 L35.0036424,4.11029969 C52.0607114,4.11029969 65.8892091,17.912686 65.8892091,34.9375473 L65.8892091,139.750189 L65.8892091,139.750189 Z" fill="#7F6E5D"></path>
                                <path d="M70.0072847,143.860489 L0,143.860489 L0,34.9375473 C0,15.6725727 15.7022222,0 35.0036424,0 C54.3050626,0 70.0072847,15.6725727 70.0072847,34.9375473 L70.0072847,143.860489 L70.0072847,143.860489 Z M8.23615114,135.63989 L61.7711336,135.63989 L61.7711336,34.9375473 C61.7711336,20.2062333 49.7628252,8.22059937 35.0036424,8.22059937 C20.2444595,8.22059937 8.23615114,20.2062333 8.23615114,34.9375473 L8.23615114,135.63989 L8.23615114,135.63989 Z" fill="#CBB292"></path>
                            </g>
                            <g transform="translate(160.604947, 172.632587)">
                                <path d="M0,4.11029969 L61.7711336,4.11029969" id="Shape" fill="#D0E8F9"></path>
                                <rect id="Rectangle-path" fill="#CBB292" x="0" y="0" width="61.7711336" height="8.22059937"></rect>
                            </g>
                        </g>
                    </g>
                </g>
                <g id="pizza" transform="translate(0.000000, 123.521959)">
                    <g id="Capa_1" transform="translate(0.000000, 0.000000)">
                        <g id="Group">
                            <path d="M83.1316129,2.12274617 L83.1316129,2.12274617 C86.2866391,4.0246436 90.0523995,4.68199339 93.6752221,3.95968808 L93.6752221,3.95968808 C99.0626763,2.88402478 104.606063,4.87685993 108.03397,9.11975405 L108.03397,9.11975405 C110.339166,11.9726002 113.650125,13.8615065 117.304134,14.4045346 L117.304134,14.4045346 C122.738368,15.2125812 127.2578,18.9592152 129.009437,24.1036918 L129.009437,24.1036918 C130.186724,27.5645216 132.645254,30.456341 135.891241,32.2023452 L135.891241,32.2023452 C140.717339,34.7979675 143.667055,39.8437118 143.531914,45.2687962 L143.531914,45.2687962 C143.440953,48.9166979 144.748184,52.4658671 147.193719,55.2017933 L147.193719,55.2017933 C150.829536,59.2706067 151.856089,65.0100758 149.847164,70.0610165 L149.847164,70.0610165 C148.495752,73.4594889 148.495752,77.2347034 149.847164,80.6331758 L149.847164,80.6331758 C151.856089,85.6867147 150.829536,91.4235857 147.193719,95.492399 L147.193719,95.492399 C144.748184,98.2283252 143.440953,101.777494 143.531914,105.425396 L143.531914,105.425396 C143.669654,110.850481 140.719938,115.896225 135.891241,118.491847 L135.891241,118.491847 C132.645254,120.237851 130.186724,123.129671 129.009437,126.5905 L129.009437,126.5905 C127.2578,131.734977 122.738368,135.479013 117.304134,136.289658 L117.304134,136.289658 C113.650125,136.832686 110.336567,138.721592 108.03397,141.574438 L108.03397,141.574438 C104.606063,145.817332 99.0626763,147.810168 93.6752221,146.734504 L93.6752221,146.734504 C90.0523995,146.012199 86.2866391,146.666951 83.1316129,148.571446 L83.1316129,148.571446 C78.4406554,151.400908 72.5412241,151.400908 67.8502666,148.571446 L67.8502666,148.571446 C64.6952403,146.669549 60.92948,146.012199 57.3066574,146.734504 L57.3066574,146.734504 C51.9192032,147.810168 46.3758169,145.817332 42.9479094,141.574438 L42.9479094,141.574438 C40.6427131,138.721592 37.3317548,136.832686 33.6777458,136.289658 L33.6777458,136.289658 C28.2435119,135.481611 23.7240797,131.734977 21.9724424,126.5905 L21.9724424,126.5905 C20.795155,123.129671 18.3366255,120.237851 15.0906389,118.491847 L15.0906389,118.491847 C10.2645402,115.896225 7.31482455,110.850481 7.44996571,105.425396 L7.44996571,105.425396 C7.5409261,101.777494 6.23369529,98.2283252 3.78816011,95.492399 L3.78816011,95.492399 C0.152343192,91.4235857 -0.874209833,85.6841165 1.13471545,80.6331758 L1.13471545,80.6331758 C2.48612703,77.2347034 2.48612703,73.4594889 1.13471545,70.0610165 L1.13471545,70.0610165 C-0.874209833,65.0074776 0.152343192,59.2706067 3.78816011,55.2017933 L3.78816011,55.2017933 C6.23369529,52.4658671 7.5409261,48.9166979 7.44996571,45.2687962 L7.44996571,45.2687962 C7.31222568,39.8437118 10.2619413,34.7979675 15.0906389,32.2023452 L15.0906389,32.2023452 C18.3366255,30.456341 20.795155,27.5645216 21.9724424,24.1036918 L21.9724424,24.1036918 C23.7240797,18.9592152 28.2435119,15.2151794 33.6777458,14.4045346 L33.6777458,14.4045346 C37.3317548,13.8615065 40.645312,11.9726002 42.9479094,9.11975405 L42.9479094,9.11975405 C46.3758169,4.87685993 51.9192032,2.88402478 57.3066574,3.95968808 L57.3066574,3.95968808 C60.92948,4.68199339 64.6952403,4.02724182 67.8502666,2.12274617 L67.8502666,2.12274617 C72.5412241,-0.706715983 78.4406554,-0.706715983 83.1316129,2.12274617 L83.1316129,2.12274617 Z" id="Shape" stroke="#FFFFFF" stroke-width="5" fill="#FED070"></path>
                            <ellipse id="Oval" fill="#FAF8D2" cx="75.4909397" cy="75.3483953" rx="62.372842" ry="62.3572926"></ellipse>
                            <ellipse id="Oval" fill="#CD6E61" cx="54.6999924" cy="38.9733079" rx="12.9943421" ry="12.9911026"></ellipse>
                            <ellipse id="Oval" fill="#CD6E61" cx="36.5079135" cy="83.1430568" rx="12.9943421" ry="12.9911026"></ellipse>
                            <ellipse id="Oval" fill="#CD6E61" cx="101.479624" cy="51.9644105" rx="12.9943421" ry="12.9911026"></ellipse>
                            <ellipse id="Oval" fill="#CD6E61" cx="67.6943345" cy="114.321703" rx="12.9943421" ry="12.9911026"></ellipse>
                            <ellipse id="Oval" fill="#CD6E61" cx="106.677361" cy="96.1341595" rx="12.9943421" ry="12.9911026"></ellipse>
                            <ellipse id="Oval" fill="#CD6E61" cx="70.2958018" cy="72.7475765" rx="12.9943421" ry="12.9911026"></ellipse>
                            <g transform="translate(31.310177, 31.178646)" id="Oval" fill="#D79C8C">
                                <ellipse cx="20.7909473" cy="2.59822053" rx="2.59886842" ry="2.59822053"></ellipse>
                                <ellipse cx="20.7909473" cy="12.9911026" rx="2.59886842" ry="2.59822053"></ellipse>
                                <ellipse cx="28.5875526" cy="7.79466158" rx="2.59886842" ry="2.59822053"></ellipse>
                                <ellipse cx="2.59886842" cy="46.7679695" rx="2.59886842" ry="2.59822053"></ellipse>
                                <ellipse cx="2.59886842" cy="57.1608516" rx="2.59886842" ry="2.59822053"></ellipse>
                                <ellipse cx="10.3954737" cy="51.9644105" rx="2.59886842" ry="2.59822053"></ellipse>
                                <ellipse cx="67.5705788" cy="15.5893232" rx="2.59886842" ry="2.59822053"></ellipse>
                                <ellipse cx="67.5705788" cy="25.9822053" rx="2.59886842" ry="2.59822053"></ellipse>
                                <ellipse cx="75.3671841" cy="20.7857642" rx="2.59886842" ry="2.59822053"></ellipse>
                                <ellipse cx="31.9141042" cy="79.4327979" rx="2.59886842" ry="2.59822053"></ellipse>
                                <ellipse cx="36.0956834" cy="88.9448833" rx="2.59886842" ry="2.59822053"></ellipse>
                                <ellipse cx="41.1426859" cy="81.0514893" rx="2.59886842" ry="2.59822053"></ellipse>
                                <ellipse cx="78.1999507" cy="59.8837867" rx="2.59886842" ry="2.59822053"></ellipse>
                                <ellipse cx="69.6080917" cy="65.7323811" rx="2.59886842" ry="2.59822053"></ellipse>
                                <ellipse cx="78.2935099" cy="69.2503717" rx="2.59886842" ry="2.59822053"></ellipse>
                                <ellipse cx="38.3670944" cy="35.7904878" rx="2.59886842" ry="2.59822053"></ellipse>
                                <ellipse cx="34.7364753" cy="45.5286183" rx="2.59886842" ry="2.59822053"></ellipse>
                                <ellipse cx="43.8559045" cy="43.3824881" rx="2.59886842" ry="2.59822053"></ellipse>
                            </g>
                            <path d="M75.4909397,44.169749 C74.0563644,44.169749 72.8920713,43.0083444 72.8920713,41.5715284 C72.8920713,40.1347125 74.0563644,38.9733079 75.4909397,38.9733079 C79.7894681,38.9733079 83.287545,35.4761031 83.287545,31.1786463 C83.287545,29.7418304 84.451838,28.5804258 85.8864134,28.5804258 C87.3209888,28.5804258 88.4852818,29.7418304 88.4852818,31.1786463 C88.4852818,38.3419403 82.65602,44.169749 75.4909397,44.169749 L75.4909397,44.169749 Z" id="Shape" fill="#88C057"></path>
                            <path d="M43.6288129,64.2669847 C38.1841836,64.2669847 33.100797,60.8217443 31.2867868,55.3836687 C30.8319849,54.0222012 31.5674646,52.5490101 32.9292717,52.0969198 C34.2936776,51.6422312 35.7620382,52.3775276 36.2168402,53.7389952 C37.5734495,57.8156032 42.0045202,60.029287 46.0795459,58.6678195 C47.4439518,58.2235238 48.9123124,58.9510255 49.3671144,60.3150913 C49.8193175,61.6739606 49.0838378,63.1471517 47.7220307,63.6018403 C46.3654214,64.0539306 44.9880211,64.2669847 43.6288129,64.2669847 L43.6288129,64.2669847 Z" id="Shape" fill="#ED3F32"></path>
                            <path d="M98.2024508,119.515546 C92.7604204,119.515546 87.6796326,116.070306 85.8656225,110.63223 C85.4108205,109.270762 86.1463002,107.797571 87.5081073,107.345481 C88.8751121,106.888194 90.3434727,107.626089 90.7956758,108.987556 C91.4531896,110.964802 92.8435842,112.567904 94.7043739,113.495469 C96.5651637,114.425632 98.6780438,114.573731 100.658381,113.916381 C102.022787,113.459094 103.491148,114.196989 103.94595,115.558456 C104.400752,116.919924 103.665272,118.393115 102.303465,118.845205 C100.941658,119.299894 99.561659,119.515546 98.2024508,119.515546 L98.2024508,119.515546 Z" id="Shape" fill="#88C057"></path>
                            <path d="M118.377466,77.9518122 C116.18662,77.9518122 114.019164,77.3905966 112.051821,76.2915493 C110.799166,75.5900298 110.349562,74.0077135 111.051256,72.7553712 C111.752951,71.5056271 113.330464,71.056135 114.588316,71.7550563 C116.410123,72.7761569 118.515206,73.0203897 120.516335,72.4565758 C122.520063,71.8875655 124.183338,70.5728659 125.199496,68.7541116 C125.898592,67.5043675 127.478704,67.0522771 128.736556,67.7537967 C129.98921,68.4553162 130.438815,70.0376325 129.73712,71.2899748 C128.042658,74.3194999 125.269665,76.5097998 121.932718,77.4529539 C120.75803,77.7855261 119.565149,77.9518122 118.377466,77.9518122 L118.377466,77.9518122 Z" id="Shape" fill="#88C057"></path>
                            <path d="M76.7955717,98.7375765 C74.6047256,98.7375765 72.4372693,98.1763608 70.469926,97.0773135 C69.2172714,96.375794 68.7676671,94.7934777 69.4693616,93.5411354 C70.1710561,92.2913913 71.7511681,91.8418992 73.0064215,92.5408205 C74.8282283,93.5593229 76.9359106,93.8061539 78.9344404,93.24234 C80.9381679,92.6733297 82.6014437,91.3586302 83.6176013,89.5398758 C84.3166969,88.2901317 85.8968089,87.8432378 87.1546612,88.5395609 C88.4073158,89.2410804 88.85692,90.8233967 88.1552255,92.075739 C86.4607633,95.1052642 83.6877707,97.2955641 80.3508237,98.2387181 C79.1761352,98.5712903 77.9832546,98.7375765 76.7955717,98.7375765 L76.7955717,98.7375765 Z" id="Shape" fill="#ED3F32"></path>
                            <path d="M48.5120867,104.903154 C47.4829348,104.903154 46.510958,104.292572 46.1029357,103.279266 C45.562371,101.948977 46.2068904,100.434214 47.5349122,99.8963828 C51.5189775,98.2828879 53.4473378,93.7282073 51.8360394,89.7451352 C51.2954748,88.4148463 51.9399941,86.9000837 53.2680159,86.3622521 C54.5986365,85.8244204 56.1137768,86.4635827 56.6517426,87.7964698 C59.3415714,94.4349233 56.1267712,102.024325 49.4866624,104.713484 C49.1670015,104.843395 48.8369453,104.903154 48.5120867,104.903154 L48.5120867,104.903154 Z" id="Shape" fill="#88C057"></path>
                            <path d="M93.1346574,85.7412774 C91.9053927,85.7412774 90.8112691,84.8656771 90.5825686,83.6133348 C89.9536425,80.199273 90.6917211,76.7436397 92.6616634,73.8907936 C94.6316056,71.032751 97.5969145,69.1152642 101.011828,68.4890931 C102.43081,68.2240746 103.779622,69.1672286 104.03691,70.5754642 C104.296797,71.9862979 103.361205,73.3399708 101.950019,73.5997929 C99.8995119,73.9791331 98.119287,75.1275465 96.9394008,76.8397739 C95.7569157,78.5520012 95.315108,80.6253812 95.6919439,82.6753772 C95.9518308,84.0862109 95.018837,85.4398838 93.6050526,85.6997058 C93.4465216,85.7282863 93.2879907,85.7412774 93.1346574,85.7412774 L93.1346574,85.7412774 Z" id="Shape" fill="#ED3F32"></path>
                        </g>
                    </g>
                </g>
            </g>
        </g>
    </g>
</svg>